<?xml version="1.0" encoding="us-ascii" standalone="no"?><svg xmlns="http://www.w3.org/2000/svg" xmlns:xlink="http://www.w3.org/1999/xlink" contentStyleType="text/css" height="521px" preserveAspectRatio="none" style="width:496px;height:521px;background:#FFFFFF;" version="1.1" viewBox="0 0 496 521" width="496px" zoomAndPan="magnify"><defs/><g><!--entity user--><g id="elem_user"><ellipse cx="264.5133" cy="14" fill="#FFB6C1" rx="8" ry="8" style="stroke:#8B0000;stroke-width:0.5;"/><path d="M264.5133,22 L264.5133,49 M251.5133,30 L277.5133,30 M264.5133,49 L251.5133,64 M264.5133,49 L277.5133,64 " fill="none" style="stroke:#8B0000;stroke-width:0.5;"/><text fill="#8B0000" font-family="sans-serif" font-size="14" lengthAdjust="spacing" textLength="30" x="249.5133" y="78.4951">user</text></g><!--entity frontend--><g id="elem_frontend"><path d="M354.7981,266.7422 C358.2046,260.7222 363.2911,260.298 367.7781,265.4914 C371.6288,258.0682 376.0585,258.7754 381.0049,264.3788 C384.14,258.241 390.1828,256.9549 394.5367,263.0281 C398.7972,259.0765 403.1625,259.0556 405.7842,264.9082 C410.466,259.6287 415.1042,258.8408 418.749,265.99 C424.1742,258.914 429.4473,259.0954 433.2561,267.5043 C439.5192,271.1676 439.0696,278.0038 432.7958,281.2472 C439.6555,285.5456 439.9485,291.5842 433.4722,296.4749 C430.8463,303.2954 424.9401,304.1808 420.5747,298.2319 C416.7496,305.7351 411.8808,306.8464 405.7539,300.7384 C403.8756,306.0799 398.5261,308.5236 394.4298,303.0637 C388.5936,309.2683 383.6359,308.4023 380.1266,300.6747 C375.7388,307.1567 370.356,305.7168 366.6905,299.8866 C362.0093,304.891 356.4091,304.0466 354.9177,296.8171 C345.194,295.8977 341.8982,290.137 346.807,281.4797 C343.4908,273.434 345.6056,268.0053 354.7981,266.7422 " fill="#E6E6FA" style="stroke:#9400D3;stroke-width:0.5;"/><text fill="#9400D3" font-family="sans-serif" font-size="14" lengthAdjust="spacing" textLength="64" x="360.5133" y="285.4951">frontend</text></g><!--entity microservice--><g id="elem_microservice"><rect fill="#E6E6FA" height="32.2969" rx="2.5" ry="2.5" style="stroke:#9400D3;stroke-width:0.5;" width="115" x="269.0133" y="384.5"/><rect fill="#E6E6FA" height="32.2969" rx="2.5" ry="2.5" style="stroke:#9400D3;stroke-width:0.5;" width="115" x="265.0133" y="380.5"/><text fill="#9400D3" font-family="sans-serif" font-size="14" lengthAdjust="spacing" textLength="99" x="273.0133" y="401.4951">microservices</text></g><!--entity core_microservice--><g id="elem_core_microservice"><rect fill="#E6E6FA" height="32.2969" rx="2.5" ry="2.5" style="stroke:#9400D3;stroke-width:0.5;" width="151" x="79.0133" y="384.5"/><rect fill="#E6E6FA" height="32.2969" rx="2.5" ry="2.5" style="stroke:#9400D3;stroke-width:0.5;" width="151" x="75.0133" y="380.5"/><text fill="#9400D3" font-family="sans-serif" font-size="14" lengthAdjust="spacing" textLength="135" x="83.0133" y="401.4951">core microservices</text></g><!--entity kubegres--><g id="elem_kubegres"><rect fill="#FFE4C4" height="22.2969" rx="2.5" ry="2.5" style="stroke:#8B4513;stroke-width:0.5;" width="87" x="109.0133" y="493.5"/><text fill="#8B4513" font-family="sans-serif" font-size="14" lengthAdjust="spacing" textLength="67" x="119.0133" y="509.4951">kubegres</text></g><!--entity prometheus--><g id="elem_prometheus"><rect fill="#FFE4C4" height="22.2969" rx="2.5" ry="2.5" style="stroke:#8B4513;stroke-width:0.5;" width="108" x="34.5133" y="269.5"/><text fill="#8B4513" font-family="sans-serif" font-size="14" lengthAdjust="spacing" textLength="88" x="44.5133" y="285.4951">prometheus</text></g><!--entity grafana--><g id="elem_grafana"><rect fill="#FFE4C4" height="22.2969" rx="2.5" ry="2.5" style="stroke:#8B4513;stroke-width:0.5;" width="74" x="99.5133" y="158.5"/><text fill="#8B4513" font-family="sans-serif" font-size="14" lengthAdjust="spacing" textLength="54" x="109.5133" y="174.4951">grafana</text></g><!--entity grpcui--><g id="elem_grpcui"><rect fill="#FFE4C4" height="32.2969" rx="2.5" ry="2.5" style="stroke:#8B4513;stroke-width:0.5;" width="71" x="231.0133" y="266.5"/><rect fill="#FFE4C4" height="32.2969" rx="2.5" ry="2.5" style="stroke:#8B4513;stroke-width:0.5;" width="71" x="227.0133" y="262.5"/><text fill="#8B4513" font-family="sans-serif" font-size="14" lengthAdjust="spacing" textLength="55" x="235.0133" y="283.4951">gRPC UI</text></g><!--link user to frontend--><g id="link_user_frontend"><path d="M279.6993,72.38 C304.5403,117.987 353.5373,207.943 377.9613,252.783 " fill="none" id="user-to-frontend" style="stroke:#8B4513;stroke-width:1.0;"/><polygon fill="#8B4513" points="380.3883,257.24,379.5956,247.4231,377.9964,252.8492,372.5703,251.2501,380.3883,257.24" style="stroke:#8B4513;stroke-width:1.0;"/><text fill="#8B4513" font-family="sans-serif" font-size="13" lengthAdjust="spacing" textLength="33" x="338.5133" y="174.0669">https</text></g><!--link frontend to core_microservice--><g id="link_frontend_core_microservice"><path d="M385.3743,303.719 C379.2943,319.116 369.0403,338.866 353.5133,350.5 C343.6323,357.903 286.1463,370.955 235.1703,381.429 " fill="none" id="frontend-to-core_microservice" style="stroke:#9400D3;stroke-width:1.0;"/><polygon fill="#9400D3" points="230.2593,382.434,239.8787,384.5476,235.1577,381.4312,238.2742,376.7102,230.2593,382.434" style="stroke:#9400D3;stroke-width:1.0;"/><text fill="#9400D3" font-family="sans-serif" font-size="13" lengthAdjust="spacing" textLength="44" x="369.5133" y="346.5669">gGRPC</text></g><!--link frontend to microservice--><g id="link_frontend_microservice"><path d="M422.7593,303.513 C437.5443,317.039 450.0993,334.737 439.5133,350.5 C427.8733,367.832 408.5943,378.776 389.1173,385.686 " fill="none" id="frontend-to-microservice" style="stroke:#9400D3;stroke-width:1.0;"/><polygon fill="#9400D3" points="384.1663,387.357,393.9731,388.2667,388.9034,385.757,391.4131,380.6874,384.1663,387.357" style="stroke:#9400D3;stroke-width:1.0;"/><text fill="#9400D3" font-family="sans-serif" font-size="13" lengthAdjust="spacing" textLength="44" x="444.5133" y="346.5669">gGRPC</text></g><!--link microservice to kubegres--><g id="link_microservice_kubegres"><path d="M303.2183,416.7063 C285.8533,430.3082 260.3803,449.3035 236.5133,463.5 C218.9003,473.9767 198.1133,483.8937 181.6243,491.2326 " fill="none" id="microservice-to-kubegres" style="stroke:#8B4513;stroke-width:1.0;"/><polygon fill="#8B4513" points="176.6533,493.4251,186.5021,493.4514,181.2278,491.4066,183.2726,486.1323,176.6533,493.4251" style="stroke:#8B4513;stroke-width:1.0;"/><text fill="#8B4513" font-family="sans-serif" font-size="13" lengthAdjust="spacing" textLength="74" x="263.5133" y="459.5669">PostgreSQL</text></g><!--link core_microservice to kubegres--><g id="link_core_microservice_kubegres"><path d="M152.5133,416.6735 C152.5133,436.6074 152.5133,469.1781 152.5133,488.2522 " fill="none" id="core_microservice-to-kubegres" style="stroke:#8B4513;stroke-width:1.0;"/><polygon fill="#8B4513" points="152.5133,493.2524,156.5133,484.2524,152.5133,488.2524,148.5133,484.2524,152.5133,493.2524" style="stroke:#8B4513;stroke-width:1.0;"/><text fill="#8B4513" font-family="sans-serif" font-size="13" lengthAdjust="spacing" textLength="74" x="153.5133" y="459.5669">PostgreSQL</text></g><!--link user to grpcui--><g id="link_user_grpcui"><path d="M264.5133,81.736 C264.5133,131.157 264.5133,216.863 264.5133,257.242 " fill="none" id="user-to-grpcui" style="stroke:#8B4513;stroke-width:1.0;"/><polygon fill="#8B4513" points="264.5133,262.399,268.5133,253.399,264.5133,257.399,260.5133,253.399,264.5133,262.399" style="stroke:#8B4513;stroke-width:1.0;"/><text fill="#8B4513" font-family="sans-serif" font-size="13" lengthAdjust="spacing" textLength="33" x="265.5133" y="174.0669">https</text></g><!--link grpcui to microservice--><g id="link_grpcui_microservice"><path d="M273.3663,298.616 C283.9573,319.092 301.7013,353.398 313.2573,375.737 " fill="none" id="grpcui-to-microservice" style="stroke:#8B4513;stroke-width:1.0;"/><polygon fill="#8B4513" points="315.6233,380.314,315.0416,370.4823,313.3263,375.8729,307.9358,374.1575,315.6233,380.314" style="stroke:#8B4513;stroke-width:1.0;"/><text fill="#8B4513" font-family="sans-serif" font-size="13" lengthAdjust="spacing" textLength="44" x="301.5133" y="346.5669">gGRPC</text></g><!--link grpcui to core_microservice--><g id="link_grpcui_core_microservice"><path d="M227.0053,287.562 C200.3953,294.032 166.5023,307.172 149.5133,333.5 C141.6333,345.711 142.5783,362.129 145.3923,375.278 " fill="none" id="grpcui-to-core_microservice" style="stroke:#8B4513;stroke-width:1.0;"/><polygon fill="#8B4513" points="146.5963,380.325,148.3988,370.6425,145.4361,375.4615,140.6172,372.4988,146.5963,380.325" style="stroke:#8B4513;stroke-width:1.0;"/><text fill="#8B4513" font-family="sans-serif" font-size="13" lengthAdjust="spacing" textLength="44" x="150.5133" y="346.5669">gGRPC</text></g><!--link user to grafana--><g id="link_user_grafana"><path d="M249.3273,59.211 C224.3093,83.448 174.7893,131.42 150.5473,154.904 " fill="none" id="user-to-grafana" style="stroke:#8B4513;stroke-width:1.0;"/><polygon fill="#8B4513" points="146.8813,158.456,156.1289,155.0676,150.4728,154.9773,150.5631,149.3212,146.8813,158.456" style="stroke:#8B4513;stroke-width:1.0;"/><text fill="#8B4513" font-family="sans-serif" font-size="13" lengthAdjust="spacing" textLength="33" x="194.5133" y="124.5669">https</text></g><!--link grafana to prometheus--><g id="link_grafana_prometheus"><path d="M132.0833,180.559 C123.5823,199.864 104.9445,242.188 95.0251,264.713 " fill="none" id="grafana-to-prometheus" style="stroke:#8B4513;stroke-width:1.0;"/><polygon fill="#8B4513" points="92.9323,269.465,100.221,262.8412,94.948,264.8893,92.8999,259.6162,92.9323,269.465" style="stroke:#8B4513;stroke-width:1.0;"/><text fill="#8B4513" font-family="sans-serif" font-size="13" lengthAdjust="spacing" textLength="26" x="119.5133" y="223.5669">http</text></g><!--link prometheus to microservice--><g id="link_prometheus_microservice"><path d="M110.7355,291.632 C133.2223,301.95 168.9383,318.517 199.5133,333.5 C229.2953,348.094 262.7213,365.25 287.5103,378.124 " fill="none" id="prometheus-to-microservice" style="stroke:#8B4513;stroke-width:1.0;"/><polygon fill="#8B4513" points="292.0353,380.476,285.8965,372.7743,287.5994,378.1688,282.205,379.8717,292.0353,380.476" style="stroke:#8B4513;stroke-width:1.0;"/><text fill="#8B4513" font-family="sans-serif" font-size="13" lengthAdjust="spacing" textLength="26" x="232.5133" y="346.5669">http</text></g><!--link prometheus to core_microservice--><g id="link_prometheus_core_microservice"><path d="M84.1347,291.555 C78.7162,305.636 71.3695,331.62 81.5133,350.5 C87.5663,361.766 97.6371,370.785 108.3187,377.79 " fill="none" id="prometheus-to-core_microservice" style="stroke:#8B4513;stroke-width:1.0;"/><polygon fill="#8B4513" points="112.5967,380.473,107.0979,372.3021,108.361,377.8162,102.847,379.0792,112.5967,380.473" style="stroke:#8B4513;stroke-width:1.0;"/><text fill="#8B4513" font-family="sans-serif" font-size="13" lengthAdjust="spacing" textLength="26" x="82.5133" y="346.5669">http</text></g><!--link prometheus to kubegres--><g id="link_prometheus_kubegres"><path d="M77.9033,291.532 C55.237,314.226 6,371.068 29.5133,416.5 C48.6281,453.4332 91.4443,478.0486 121.1482,491.4004 " fill="none" id="prometheus-to-kubegres" style="stroke:#8B4513;stroke-width:1.0;"/><polygon fill="#8B4513" points="125.7973,493.4467,119.1713,486.16,121.221,491.4325,115.9485,493.4821,125.7973,493.4467" style="stroke:#8B4513;stroke-width:1.0;"/><text fill="#8B4513" font-family="sans-serif" font-size="13" lengthAdjust="spacing" textLength="26" x="30.5133" y="403.0669">http</text></g><!--SRC=[dPIzJiCm58LtFuML3aoTs5e9gIe88I4H0WnCo7KkgLNN3hPJU7piE3yEQMcTBCcruk_USuuJGerKkDAWCD7-FkEis9gIYTsICm6BdAYTWdnfuCUq1K9NU9McY79PvTXVoQUIme384rzRNhjIrpDE3lOPL8yzCCd1z6HV8oev1sgO51edUqQLj7CT60MTE6gu4a6r8w-VihiXdKe5UDp2BNzCxtETtU9qbRs-8qfKwmzETjK62kLQrEwqfVDcm_HN1PwjIPvps2ZvBJmyM1W2IoNtOBPG-QdxSYgmKEIJ298q-JKbZfimzBV8qZL-U-Y19QqOZWDQGqbPsao4QBYeFgZrDP_V38-PX_y7n0kyDQRKgD_dA4SoFvsoxR70nRrLzuSo0FXPBg9OaTrvw9MYCSurwTuyfpELsjWNNvuVqLZUL98TjSan6BH9n363aAFYQFQTSF4CmhiO88x4UH72gWk-ex52tAdiler8bTq-XmbwHM1Gi6sQNySeyPOTemI_jGX5lm00]--></g></svg>