<?xml version="1.0" encoding="UTF-8" standalone="no"?><svg xmlns="http://www.w3.org/2000/svg" xmlns:xlink="http://www.w3.org/1999/xlink" contentScriptType="application/ecmascript" contentStyleType="text/css" height="520px" preserveAspectRatio="none" style="width:169px;height:520px;background:#FFFFFF;" version="1.1" viewBox="0 0 169 520" width="169px" zoomAndPan="magnify"><defs><filter height="300%" id="fp1ry5ifgzg0g" width="300%" x="-1" y="-1"><feGaussianBlur result="blurOut" stdDeviation="2.0"/><feColorMatrix in="blurOut" result="blurOut2" type="matrix" values="0 0 0 0 0 0 0 0 0 0 0 0 0 0 0 0 0 0 .4 0"/><feOffset dx="4.0" dy="4.0" in="blurOut2" result="blurOut3"/><feBlend in="SourceGraphic" in2="blurOut3" mode="normal"/></filter></defs><g><!--MD5=[05596e4ab25226d09b85b9abaf1de73e]
cluster frontgate--><polygon fill="#FFFFFF" filter="url(#fp1ry5ifgzg0g)" points="16,113,87,113,94,136.6094,152,136.6094,152,513,16,513,16,113" style="stroke:#A80036;stroke-width:1.0;"/><line style="stroke:#A80036;stroke-width:1.0;" x1="16" x2="94" y1="136.6094" y2="136.6094"/><text fill="#000000" font-family="sans-serif" font-size="14" font-weight="bold" lengthAdjust="spacing" textLength="65" x="20" y="129.5332">frontgate</text><!--MD5=[b2601f77d832ce98e85a84a35d849719]
entity front_ingress--><path d="M54.8502,158.598 C59.4317,151.0713 64.543,150.121 71.0457,156.3333 C72.8078,148.6758 78.248,145.5871 84.6782,151.7181 C91.0471,146.8914 96.7162,147.047 99.2116,155.8488 C104.9023,149.7239 111.8003,149.9525 115.86,157.7932 C124.9653,158.2982 129.1514,164.1887 125.3295,172.8331 C131.4507,182.2419 126.5104,189.1847 116.1892,189.6646 C113.444,197.6571 106.9766,200.3931 100.4047,193.8082 C98.2822,203.6981 91.5728,204.7596 84.5038,198.7574 C77.5596,204.6989 72.7945,202.6325 69.8893,194.5488 C63.0048,201.5435 57.6541,197.9421 54.7178,190.422 C45.2581,187.1143 43.1602,180.7269 50.2786,173.1567 C45.5517,166.4165 46.8396,161.3385 54.8502,158.598 " fill="#E6E6FA" filter="url(#fp1ry5ifgzg0g)" style="stroke:#9400D3;stroke-width:1.0;"/><text fill="#9400D3" font-family="sans-serif" font-size="14" lengthAdjust="spacing" textLength="46" x="61" y="178.5332">ingress</text><!--MD5=[d0a6a00ec972470f35b55d5f076227b8]
entity front_service--><rect fill="#FFE4C4" filter="url(#fp1ry5ifgzg0g)" height="40.6094" style="stroke:#8B4513;stroke-width:1.0;" width="75" x="46.5" y="257"/><polygon fill="#FFE4C4" points="104.5,262,104.5,276,116.5,276,116.5,268,110.5,262,104.5,262" style="stroke:#8B4513;stroke-width:1.0;"/><line style="stroke:#8B4513;stroke-width:1.0;" x1="110.5" x2="110.5" y1="262" y2="268"/><line style="stroke:#8B4513;stroke-width:1.0;" x1="116.5" x2="110.5" y1="268" y2="268"/><text fill="#8B4513" font-family="sans-serif" font-size="14" lengthAdjust="spacing" textLength="45" x="56.5" y="284.5332">service</text><!--MD5=[cd4473eb31c3b4fde06f93f1f693d219]
entity front_deployment--><rect fill="#FFE4C4" filter="url(#fp1ry5ifgzg0g)" height="40.6094" style="stroke:#8B4513;stroke-width:1.0;" width="103" x="32.5" y="358"/><polygon fill="#FFE4C4" points="118.5,363,118.5,377,130.5,377,130.5,369,124.5,363,118.5,363" style="stroke:#8B4513;stroke-width:1.0;"/><line style="stroke:#8B4513;stroke-width:1.0;" x1="124.5" x2="124.5" y1="363" y2="369"/><line style="stroke:#8B4513;stroke-width:1.0;" x1="130.5" x2="124.5" y1="369" y2="369"/><text fill="#8B4513" font-family="sans-serif" font-size="14" lengthAdjust="spacing" textLength="73" x="42.5" y="385.5332">deployment</text><!--MD5=[7cc3cd7b61f9e6501f78e5a57108bd0b]
entity front_pod--><rect fill="#FFE4C4" filter="url(#fp1ry5ifgzg0g)" height="33.6094" style="stroke:#8B4513;stroke-width:1.5;" width="40" x="66" y="463"/><rect fill="#FFE4C4" height="33.6094" style="stroke:#8B4513;stroke-width:1.5;" width="40" x="62" y="459"/><text fill="#8B4513" font-family="sans-serif" font-size="14" lengthAdjust="spacing" textLength="24" x="70" y="481.5332">pod</text><!--MD5=[8fc3522a43f8c7199df5e09e5bb0188e]
entity user--><ellipse cx="84" cy="14" fill="#FEFECE" filter="url(#fp1ry5ifgzg0g)" rx="8" ry="8" style="stroke:#A80036;stroke-width:2.0;"/><path d="M84,22 L84,49 M71,30 L97,30 M84,49 L71,64 M84,49 L97,64 " fill="none" filter="url(#fp1ry5ifgzg0g)" style="stroke:#A80036;stroke-width:2.0;"/><text fill="#000000" font-family="sans-serif" font-size="14" lengthAdjust="spacing" textLength="28" x="70" y="85.5332">user</text><!--MD5=[bb3f7ed282b4231792db4d15284f4c96]
link user to front_ingress--><path d="M84,89.3 C84,107.2 84,127.64 84,143.71 " fill="none" id="user-to-front_ingress" style="stroke:#A80036;stroke-width:1.0;"/><polygon fill="#A80036" points="84,148.99,88,139.99,84,143.99,80,139.99,84,148.99" style="stroke:#A80036;stroke-width:1.0;"/><!--MD5=[176bb3a6f42d5b50a10c450cf0ef2225]
link front_ingress to front_service--><path d="M84,197 C84,213.12 84,234.67 84,251.26 " fill="none" id="front_ingress-to-front_service" style="stroke:#A80036;stroke-width:1.0;"/><polygon fill="#A80036" points="84,256.68,88,247.68,84,251.68,80,247.68,84,256.68" style="stroke:#A80036;stroke-width:1.0;"/><!--MD5=[bcea588521f04d06884a094868919eae]
link front_service to front_deployment--><path d="M84,298.06 C84,313.79 84,335.98 84,352.91 " fill="none" id="front_service-to-front_deployment" style="stroke:#A80036;stroke-width:1.0;"/><polygon fill="#A80036" points="84,357.98,88,348.98,84,352.98,80,348.98,84,357.98" style="stroke:#A80036;stroke-width:1.0;"/><!--MD5=[da020ea890ece560abf1989ff2da377a]
link front_deployment to front_pod--><path d="M84,399.23 C84,414.93 84,436.94 84,453.54 " fill="none" id="front_deployment-to-front_pod" style="stroke:#A80036;stroke-width:1.0;"/><polygon fill="#A80036" points="84,458.94,88,449.94,84,453.94,80,449.94,84,458.94" style="stroke:#A80036;stroke-width:1.0;"/><!--MD5=[13cd595f88e100a57e3f1b7d481d523d]
@startuml
<style>
artifact {
  BackgroundColor bisque
  LineColor saddlebrown
  FontColor saddlebrown
}
collections {
  BackgroundColor bisque
  LineColor saddlebrown
  FontColor saddlebrown
}
cloud {
  BackgroundColor lavender
  LineColor darkviolet
  FontColor darkviolet
}
</style>

actor user
package "frontgate" as frontgate {
  cloud ingress as front_ingress
  artifact service as front_service
  artifact deployment as front_deployment
  collections pod as front_pod
}

user - -> front_ingress
front_ingress - -> front_service
front_service - -> front_deployment
front_deployment - -> front_pod
@enduml

PlantUML version 1.2021.11(Sat Oct 02 15:26:11 CEST 2021)
(GPL source distribution)
Java Runtime: OpenJDK Runtime Environment
JVM: OpenJDK 64-Bit Server VM
Default Encoding: Cp1252
Language: en
Country: US
--></g></svg>