<?xml version="1.0" encoding="UTF-8" standalone="no"?><svg xmlns="http://www.w3.org/2000/svg" xmlns:xlink="http://www.w3.org/1999/xlink" contentScriptType="application/ecmascript" contentStyleType="text/css" height="475px" preserveAspectRatio="none" style="width:742px;height:475px;background:#FFFFFF;" version="1.1" viewBox="0 0 742 475" width="742px" zoomAndPan="magnify"><defs><filter height="300%" id="f12fsge7qienfe" width="300%" x="-1" y="-1"><feGaussianBlur result="blurOut" stdDeviation="2.0"/><feColorMatrix in="blurOut" result="blurOut2" type="matrix" values="0 0 0 0 0 0 0 0 0 0 0 0 0 0 0 0 0 0 .4 0"/><feOffset dx="4.0" dy="4.0" in="blurOut2" result="blurOut3"/><feBlend in="SourceGraphic" in2="blurOut3" mode="normal"/></filter></defs><g><!--MD5=[f12f832c3ac0603ce526ef171d08d9c6]
cluster base--><polygon fill="#FFFFFF" filter="url(#f12fsge7qienfe)" points="16,6,56,6,63,29.6094,297,29.6094,297,266,16,266,16,6" style="stroke:#A80036;stroke-width:1.0;"/><line style="stroke:#A80036;stroke-width:1.0;" x1="16" x2="63" y1="29.6094" y2="29.6094"/><text fill="#000000" font-family="sans-serif" font-size="14" font-weight="bold" lengthAdjust="spacing" textLength="34" x="20" y="22.5332">base</text><!--MD5=[7579d5565d2521d5936cec86ed3dadee]
cluster service--><polygon fill="#FFFFFF" filter="url(#f12fsge7qienfe)" points="337,115,396,115,403,138.6094,725,138.6094,725,311,337,311,337,115" style="stroke:#A80036;stroke-width:1.0;"/><line style="stroke:#A80036;stroke-width:1.0;" x1="337" x2="403" y1="138.6094" y2="138.6094"/><text fill="#000000" font-family="sans-serif" font-size="14" font-weight="bold" lengthAdjust="spacing" textLength="53" x="341" y="131.5332">service</text><!--MD5=[e18d4bc80fd28bdf82576c0057a5a41c]
cluster environment--><polygon fill="#FFFFFF" filter="url(#f12fsge7qienfe)" points="337,351,433,351,440,374.6094,683,374.6094,683,468,337,468,337,351" style="stroke:#A80036;stroke-width:1.0;"/><line style="stroke:#A80036;stroke-width:1.0;" x1="337" x2="440" y1="374.6094" y2="374.6094"/><text fill="#000000" font-family="sans-serif" font-size="14" font-weight="bold" lengthAdjust="spacing" textLength="90" x="341" y="367.5332">environment</text><!--MD5=[50ccbf393146abc57ca063c6c2cb7003]
entity base_deployment--><rect fill="#FFE4C4" filter="url(#f12fsge7qienfe)" height="40.6094" style="stroke:#8B4513;stroke-width:1.0;" width="103" x="40.5" y="50"/><polygon fill="#FFE4C4" points="126.5,55,126.5,69,138.5,69,138.5,61,132.5,55,126.5,55" style="stroke:#8B4513;stroke-width:1.0;"/><line style="stroke:#8B4513;stroke-width:1.0;" x1="132.5" x2="132.5" y1="55" y2="61"/><line style="stroke:#8B4513;stroke-width:1.0;" x1="138.5" x2="132.5" y1="61" y2="61"/><text fill="#8B4513" font-family="sans-serif" font-size="14" lengthAdjust="spacing" textLength="73" x="50.5" y="77.5332">deployment</text><!--MD5=[ec6d0ae9564e179d40b42f6853a93f12]
entity base_service--><rect fill="#FFE4C4" filter="url(#f12fsge7qienfe)" height="40.6094" style="stroke:#8B4513;stroke-width:1.0;" width="75" x="178.5" y="50"/><polygon fill="#FFE4C4" points="236.5,55,236.5,69,248.5,69,248.5,61,242.5,55,236.5,55" style="stroke:#8B4513;stroke-width:1.0;"/><line style="stroke:#8B4513;stroke-width:1.0;" x1="242.5" x2="242.5" y1="55" y2="61"/><line style="stroke:#8B4513;stroke-width:1.0;" x1="248.5" x2="242.5" y1="61" y2="61"/><text fill="#8B4513" font-family="sans-serif" font-size="14" lengthAdjust="spacing" textLength="45" x="188.5" y="77.5332">service</text><!--MD5=[63ed0193c7f9441b75b1fb7a232cead6]
entity base_ingress--><rect fill="#F0F8FF" filter="url(#f12fsge7qienfe)" height="37.6094" style="stroke:#00008B;stroke-width:1.0;" width="66" x="47" y="204"/><text fill="#00008B" font-family="sans-serif" font-size="14" lengthAdjust="spacing" textLength="46" x="57" y="228.5332">ingress</text><!--MD5=[830a5953ccefdea84f3a9046b0a965ff]
entity base_kustomization--><rect fill="#E6E6FA" filter="url(#f12fsge7qienfe)" height="23.6094" style="stroke:#9400D3;stroke-width:1.0;" width="105" x="148.5" y="211"/><text fill="#9400D3" font-family="sans-serif" font-size="14" lengthAdjust="spacing" textLength="85" x="158.5" y="228.5332">kustomization</text><!--MD5=[5b2e7c10d6408a46a01840a5eae4c03e]
entity service_patch_ingress_host--><rect fill="#F0F8FF" filter="url(#f12fsge7qienfe)" height="37.6094" style="stroke:#00008B;stroke-width:1.0;" width="138" x="563" y="204"/><text fill="#00008B" font-family="sans-serif" font-size="14" lengthAdjust="spacing" textLength="118" x="573" y="228.5332">patch-ingress-host</text><!--MD5=[2b210637f9e2cbe19143ead2d5bfcece]
entity service_kustomization--><rect fill="#E6E6FA" filter="url(#f12fsge7qienfe)" height="127.6563" style="stroke:#9400D3;stroke-width:1.0;" width="148" x="380" y="159"/><text fill="#9400D3" font-family="sans-serif" font-size="14" lengthAdjust="spacing" textLength="85" x="390" y="176.5332">kustomization</text><line style="stroke:#9400D3;stroke-width:1.0;" x1="381" x2="527" y1="179.6094" y2="179.6094"/><line style="stroke:#9400D3;stroke-width:1.0;" x1="381" x2="527" y1="181.6094" y2="181.6094"/><text fill="#9400D3" font-family="sans-serif" font-size="14" lengthAdjust="spacing" textLength="70" x="390" y="198.1426">namePrefix</text><text fill="#9400D3" font-family="sans-serif" font-size="14" lengthAdjust="spacing" textLength="95" x="390" y="215.752">commonLabels</text><text fill="#9400D3" font-family="sans-serif" font-size="14" lengthAdjust="spacing" textLength="128" x="390" y="233.3613">commonAnnotations</text><text fill="#9400D3" font-family="sans-serif" font-size="14" lengthAdjust="spacing" textLength="45" x="390" y="250.9707">images</text><line style="stroke:#9400D3;stroke-width:1.0;" x1="381" x2="527" y1="258.0469" y2="258.0469"/><text fill="#9400D3" font-family="sans-serif" font-size="14" lengthAdjust="spacing" textLength="50" x="390" y="276.5801">patches</text><!--MD5=[d6339a00db8d5c604eec9bf1ee3d91d7]
entity environment_patch_ingress_host--><rect fill="#F0F8FF" filter="url(#f12fsge7qienfe)" height="37.6094" style="stroke:#00008B;stroke-width:1.0;" width="138" x="521" y="400.5"/><text fill="#00008B" font-family="sans-serif" font-size="14" lengthAdjust="spacing" textLength="118" x="531" y="425.0332">patch-ingress-host</text><!--MD5=[f9caea639f5bb7133c0f4ebc52fc0dc0]
entity environment_kustomization--><rect fill="#E6E6FA" filter="url(#f12fsge7qienfe)" height="49.2188" style="stroke:#9400D3;stroke-width:1.0;" width="105" x="380.5" y="395"/><text fill="#9400D3" font-family="sans-serif" font-size="14" lengthAdjust="spacing" textLength="85" x="390.5" y="412.5332">kustomization</text><line style="stroke:#9400D3;stroke-width:1.0;" x1="381.5" x2="484.5" y1="415.6094" y2="415.6094"/><line style="stroke:#9400D3;stroke-width:1.0;" x1="381.5" x2="484.5" y1="417.6094" y2="417.6094"/><text fill="#9400D3" font-family="sans-serif" font-size="14" lengthAdjust="spacing" textLength="50" x="390.5" y="434.1426">patches</text><!--MD5=[760dde90296147dd0247660e35bb2400]
reverse link base to service--><path d="M297.0643,93.175 C297.1414,93.3822 297.2189,93.5905 297.2968,93.8 C297.6085,94.6377 297.9269,95.4931 298.2514,96.3653 C303.4441,110.32 310.2281,128.5513 317.0113,146.78 C323.7944,165.0088 330.5766,183.235 335.7655,197.1797 C336.0898,198.0512 336.4079,198.906 336.7193,199.7431 C336.7972,199.9524 336.8747,200.1605 336.9517,200.3675 " fill="none" id="base-backto-service" style="stroke:#A80036;stroke-width:1.0;"/><polygon fill="#A80036" points="297.0643,93.175,296.4541,103.005,298.808,97.8611,303.9519,100.215,297.0643,93.175" style="stroke:#A80036;stroke-width:1.0;"/><!--MD5=[dd925c118d6c80c63055d1b5e693106f]
reverse link service to environment--><path d="M345,311.3604 C345,311.7268 345,312.0934 345,312.4601 C345,315.3942 345,318.339 345,321.2837 C345,327.1733 345,333.0626 345,338.8654 C345,341.7668 345,344.6465 345,347.4938 C345,348.2057 345,348.9155 345,349.6231 C345,349.9769 345,350.3301 345,350.6828 " fill="none" id="service-backto-environment" style="stroke:#A80036;stroke-width:1.0;"/><polygon fill="#A80036" points="345,311.3604,341,320.3604,345,316.3604,349,320.3604,345,311.3604" style="stroke:#A80036;stroke-width:1.0;"/><!--MD5=[843aa127082e9dc8da62809684afad0e]
link base_deployment to base_service--><!--MD5=[eba4eed7f326f52c325e4ed8f7354692]
link base_deployment to base_ingress--><!--MD5=[3b824b323d931fdd1c51f93379a99bcc]
link base_ingress to base_kustomization--><!--MD5=[8c54c23b29fc45aa6ab99e24b75c11b4]
@startuml
<style>
agent {
  BackgroundColor aliceblue
  LineColor darkblue
  FontColor darkblue
}
artifact {
  BackgroundColor bisque
  LineColor saddlebrown
  FontColor saddlebrown
}
card {
  BackgroundColor lavender
  LineColor darkviolet
  FontColor darkviolet
}
</style>

folder base {
  artifact deployment as base_deployment
  artifact service as base_service
  agent ingress as base_ingress
  card kustomization as base_kustomization
}

folder service {
  agent "patch-ingress-host" as service_patch_ingress_host
  card service_kustomization [
    kustomization
    ====
    namePrefix
    commonLabels
    commonAnnotations
    images
    - - - -
    patches
  ]
}

folder environment {
  agent "patch-ingress-host" as environment_patch_ingress_host
  card environment_kustomization [
    kustomization
    ====
    patches
  ]
}

base <- - service
service <- - environment
@enduml

PlantUML version 1.2021.11(Sat Oct 02 15:26:11 CEST 2021)
(GPL source distribution)
Java Runtime: OpenJDK Runtime Environment
JVM: OpenJDK 64-Bit Server VM
Default Encoding: Cp1252
Language: en
Country: US
--></g></svg>