<?xml version="1.0" encoding="UTF-8" standalone="no"?><svg xmlns="http://www.w3.org/2000/svg" xmlns:xlink="http://www.w3.org/1999/xlink" contentScriptType="application/ecmascript" contentStyleType="text/css" height="504px" preserveAspectRatio="none" style="width:344px;height:504px;background:#FFFFFF;" version="1.1" viewBox="0 0 344 504" width="344px" zoomAndPan="magnify"><defs><filter height="300%" id="f1aeorm9qs9gmy" width="300%" x="-1" y="-1"><feGaussianBlur result="blurOut" stdDeviation="2.0"/><feColorMatrix in="blurOut" result="blurOut2" type="matrix" values="0 0 0 0 0 0 0 0 0 0 0 0 0 0 0 0 0 0 .4 0"/><feOffset dx="4.0" dy="4.0" in="blurOut2" result="blurOut3"/><feBlend in="SourceGraphic" in2="blurOut3" mode="normal"/></filter></defs><g><!--MD5=[f12f832c3ac0603ce526ef171d08d9c6]
cluster base--><polygon fill="#FFFFFF" filter="url(#f1aeorm9qs9gmy)" points="16,16,26,6,327,6,327,110,317,120,16,120,16,16" style="stroke:#000000;stroke-width:1.5;"/><line style="stroke:#000000;stroke-width:1.5;" x1="317" x2="327" y1="16" y2="6"/><line style="stroke:#000000;stroke-width:1.5;" x1="16" x2="317" y1="16" y2="16"/><line style="stroke:#000000;stroke-width:1.5;" x1="317" x2="317" y1="16" y2="120"/><text fill="#000000" font-family="sans-serif" font-size="14" font-weight="bold" lengthAdjust="spacing" textLength="34" x="150.5" y="33.5332">base</text><!--MD5=[7579d5565d2521d5936cec86ed3dadee]
cluster service--><polygon fill="#FFFFFF" filter="url(#f1aeorm9qs9gmy)" points="16,170,26,160,231,160,231,325,221,335,16,335,16,170" style="stroke:#000000;stroke-width:1.5;"/><line style="stroke:#000000;stroke-width:1.5;" x1="221" x2="231" y1="170" y2="160"/><line style="stroke:#000000;stroke-width:1.5;" x1="16" x2="221" y1="170" y2="170"/><line style="stroke:#000000;stroke-width:1.5;" x1="221" x2="221" y1="170" y2="335"/><text fill="#000000" font-family="sans-serif" font-size="14" font-weight="bold" lengthAdjust="spacing" textLength="53" x="93" y="187.5332">service</text><!--MD5=[e18d4bc80fd28bdf82576c0057a5a41c]
cluster environment--><polygon fill="#FFFFFF" filter="url(#f1aeorm9qs9gmy)" points="16,385,26,375,189,375,189,487,179,497,16,497,16,385" style="stroke:#000000;stroke-width:1.5;"/><line style="stroke:#000000;stroke-width:1.5;" x1="179" x2="189" y1="385" y2="375"/><line style="stroke:#000000;stroke-width:1.5;" x1="16" x2="179" y1="385" y2="385"/><line style="stroke:#000000;stroke-width:1.5;" x1="179" x2="179" y1="385" y2="497"/><text fill="#000000" font-family="sans-serif" font-size="14" font-weight="bold" lengthAdjust="spacing" textLength="90" x="53.5" y="402.5332">environment</text><!--MD5=[50ccbf393146abc57ca063c6c2cb7003]
entity base_deployment--><rect fill="#FEFECE" filter="url(#f1aeorm9qs9gmy)" height="40.6094" style="stroke:#000000;stroke-width:1.5;" width="103" x="199.5" y="55"/><polygon fill="#FEFECE" points="285.5,60,285.5,74,297.5,74,297.5,66,291.5,60,285.5,60" style="stroke:#000000;stroke-width:1.5;"/><line style="stroke:#000000;stroke-width:1.5;" x1="291.5" x2="291.5" y1="60" y2="66"/><line style="stroke:#000000;stroke-width:1.5;" x1="297.5" x2="291.5" y1="66" y2="66"/><text fill="#000000" font-family="sans-serif" font-size="14" lengthAdjust="spacing" textLength="73" x="209.5" y="82.5332">deployment</text><!--MD5=[830a5953ccefdea84f3a9046b0a965ff]
entity base_kustomization--><rect fill="#FEFECE" filter="url(#f1aeorm9qs9gmy)" height="23.6094" style="stroke:#000000;stroke-width:1.5;" width="105" x="59.5" y="63.5"/><text fill="#000000" font-family="sans-serif" font-size="14" lengthAdjust="spacing" textLength="85" x="69.5" y="81.0332">kustomization</text><!--MD5=[2b210637f9e2cbe19143ead2d5bfcece]
entity service_kustomization--><rect fill="#FEFECE" filter="url(#f1aeorm9qs9gmy)" height="102.0469" style="stroke:#000000;stroke-width:1.5;" width="148" x="59" y="209"/><text fill="#000000" font-family="sans-serif" font-size="14" lengthAdjust="spacing" textLength="85" x="69" y="226.5332">kustomization</text><line style="stroke:#000000;stroke-width:1.0;" x1="60" x2="206" y1="229.6094" y2="229.6094"/><line style="stroke:#000000;stroke-width:1.0;" x1="60" x2="206" y1="231.6094" y2="231.6094"/><text fill="#000000" font-family="sans-serif" font-size="14" lengthAdjust="spacing" textLength="70" x="69" y="248.1426">namePrefix</text><text fill="#000000" font-family="sans-serif" font-size="14" lengthAdjust="spacing" textLength="95" x="69" y="265.752">commonLabels</text><text fill="#000000" font-family="sans-serif" font-size="14" lengthAdjust="spacing" textLength="128" x="69" y="283.3613">commonAnnotations</text><text fill="#000000" font-family="sans-serif" font-size="14" lengthAdjust="spacing" textLength="45" x="69" y="300.9707">images</text><!--MD5=[f9caea639f5bb7133c0f4ebc52fc0dc0]
entity environment_kustomization--><rect fill="#FEFECE" filter="url(#f1aeorm9qs9gmy)" height="49.2188" style="stroke:#000000;stroke-width:1.5;" width="105" x="59.5" y="424"/><text fill="#000000" font-family="sans-serif" font-size="14" lengthAdjust="spacing" textLength="85" x="69.5" y="441.5332">kustomization</text><line style="stroke:#000000;stroke-width:1.0;" x1="60.5" x2="163.5" y1="444.6094" y2="444.6094"/><line style="stroke:#000000;stroke-width:1.0;" x1="60.5" x2="163.5" y1="446.6094" y2="446.6094"/><text fill="#000000" font-family="sans-serif" font-size="14" lengthAdjust="spacing" textLength="73" x="69.5" y="463.1426">namespace</text><!--MD5=[760dde90296147dd0247660e35bb2400]
reverse link base to service--><path d="M24,120.2305 C24,125.0283 24,130.0691 24,135.2719 C24,140.4746 24,145.8394 24,151.2851 C24,154.0079 24,156.751 24,159.5041 C24,159.5902 24,159.6762 24,159.7623 C24,159.8053 24,159.8483 24,159.8914 " fill="none" id="base-backto-service" style="stroke:#A80036;stroke-width:1.0;"/><polygon fill="#A80036" points="24,120.2305,20,129.2305,24,125.2305,28,129.2305,24,120.2305" style="stroke:#A80036;stroke-width:1.0;"/><!--MD5=[dd925c118d6c80c63055d1b5e693106f]
reverse link service to environment--><path d="M24,335.3421 C24,336.0349 24,336.7293 24,337.4249 C24,342.9898 24,348.6375 24,354.285 C24,359.9325 24,365.5798 24,371.1442 C24,371.8397 24,372.534 24,373.2267 C24,373.5731 24,373.9192 24,374.2648 C24,374.4376 24,374.6103 24,374.783 " fill="none" id="service-backto-environment" style="stroke:#A80036;stroke-width:1.0;"/><polygon fill="#A80036" points="24,335.3421,20,344.3421,24,340.3421,28,344.3421,24,335.3421" style="stroke:#A80036;stroke-width:1.0;"/><!--MD5=[a989f016f8ac1c91987f058dc38adc69]
@startuml
node base {
  artifact deployment as base_deployment
  card kustomization as base_kustomization
}

node service {
  card service_kustomization [
    kustomization
    ====
    namePrefix
    commonLabels
    commonAnnotations
    images
  ]
}

node environment {
  card environment_kustomization [
    kustomization
    ====
    namespace
  ]
}

base <- - service
service <- - environment
@enduml

PlantUML version 1.2021.11(Sat Oct 02 15:26:11 CEST 2021)
(GPL source distribution)
Java Runtime: OpenJDK Runtime Environment
JVM: OpenJDK 64-Bit Server VM
Default Encoding: Cp1252
Language: en
Country: US
--></g></svg>