<?xml version="1.0" encoding="UTF-8" standalone="no"?><svg xmlns="http://www.w3.org/2000/svg" xmlns:xlink="http://www.w3.org/1999/xlink" contentScriptType="application/ecmascript" contentStyleType="text/css" height="528px" preserveAspectRatio="none" style="width:264px;height:528px;background:#FFFFFF;" version="1.1" viewBox="0 0 264 528" width="264px" zoomAndPan="magnify"><defs><filter height="300%" id="f1m6srauba09df" width="300%" x="-1" y="-1"><feGaussianBlur result="blurOut" stdDeviation="2.0"/><feColorMatrix in="blurOut" result="blurOut2" type="matrix" values="0 0 0 0 0 0 0 0 0 0 0 0 0 0 0 0 0 0 .4 0"/><feOffset dx="4.0" dy="4.0" in="blurOut2" result="blurOut3"/><feBlend in="SourceGraphic" in2="blurOut3" mode="normal"/></filter></defs><g><!--MD5=[e18d4bc80fd28bdf82576c0057a5a41c]
cluster environment--><path d="M37.2042,116.8969 C45.7692,100.7012 61.559,97.7818 71.7042,115.2788 C79.5012,99.5169 89.9839,96.3445 102.9158,109.7919 C111.1711,95.6987 127.178,93.1694 135.8933,109.2899 C146.3345,96.4105 156.3048,94.3822 167.0387,108.9579 C177.7192,95.4654 190.9239,95.8567 199.2247,111.5796 C212.5766,97.3185 230.5454,101.1755 236.4039,120 C238.1838,121.193 238.3279,122.3725 236.5075,123.6671 C248.6747,129.1471 250.4002,140.859 240.6623,149.8192 C250.0876,157.2171 249.9234,166.2465 239.3089,172.4458 C254.111,179.609 253.4546,191.7363 239.8054,199.4231 C251.2184,206.997 255.0594,217.5858 241.4197,226.6453 C256.4262,235.4743 252.9768,248.0971 239.8867,255.4297 C252.7106,263.7599 251.3232,273.9451 239.1859,281.6071 C251.3538,286.727 251.304,295.0476 243.2761,303.8767 C257.2727,312.5355 255.8884,322.8667 243.1792,331.4317 C254.4143,338.827 257.7505,351.4342 243.3034,358.9453 C254.0019,367.1398 252.6312,378.5069 241.4529,385.1569 C253.3037,392.7278 253.8893,402.49 240.8973,409.4937 C252.9903,419.1187 253.2723,427.3188 240.3265,436.4128 C253.618,443.2884 251.7971,455.0628 241.3,462.8156 C252.6594,476.2049 249.0078,492.4224 229.4039,494 C231.4405,493.561 232.1913,494.4689 231.8283,496.4269 C224.3402,513.3373 211.5245,510.8709 201.9863,498.5176 C194.0441,513.1444 180.2195,516.3024 169.5588,501.5144 C163.3031,521.9873 148.0508,520.3042 135.3245,508.3444 C120.4619,520.8031 109.4017,519.2502 100.5156,501.4656 C91.5316,512.5209 78.7477,514.832 72.413,498.7246 C51.7911,517.609 37.9154,509.8191 28.4039,487 C30.2369,486.1429 31.6976,486.6644 31.5514,488.9697 C18.8996,482.2662 15.787,471.6411 28.4576,462.0295 C17.2305,453.9354 15.9621,443.5332 29.1899,436.1305 C15.1085,431.3066 12.7018,418.7262 25.402,410.0174 C13.1112,403.3454 13.5355,391.939 24.6359,384.5631 C12.9045,378.7272 13.3888,366.837 24.142,360.5389 C11.0447,353.6104 8.4383,342.8588 20.4029,332.5787 C8.6476,325.0724 8.2607,312.223 21.11,305.3558 C7.4546,296.741 6,287.3287 20.5081,278.0922 C11.4103,270.0851 11.3881,258.6701 24.6461,254.6009 C13.5134,247.0222 11.0842,232.7387 25.7752,226.1862 C14.8783,216.8917 13.743,207.024 27.1846,198.9909 C15.6167,190.8132 16.759,178.3073 30.1472,172.971 C17.4143,165.5516 17.0844,153.7266 30.0567,146.2203 C18.3223,133.1818 18.5825,121.4422 35.4039,113 C37.8094,113.4767 38.1668,114.8643 37.2042,116.8969 " fill="#FFFFFF" filter="url(#f1m6srauba09df)" style="stroke:#A80036;stroke-width:1.0;"/><text fill="#000000" font-family="sans-serif" font-size="14" font-weight="bold" lengthAdjust="spacing" textLength="90" x="87.4039" y="132.5332">environment</text><!--MD5=[05596e4ab25226d09b85b9abaf1de73e]
cluster frontgate--><polygon fill="#FFFFFF" filter="url(#f1m6srauba09df)" points="52.4039,167,62.4039,157,212.4039,157,212.4039,460,202.4039,470,52.4039,470,52.4039,167" style="stroke:#A80036;stroke-width:1.0;"/><line style="stroke:#A80036;stroke-width:1.0;" x1="202.4039" x2="212.4039" y1="167" y2="157"/><line style="stroke:#A80036;stroke-width:1.0;" x1="52.4039" x2="202.4039" y1="167" y2="167"/><line style="stroke:#A80036;stroke-width:1.0;" x1="202.4039" x2="202.4039" y1="167" y2="470"/><text fill="#000000" font-family="sans-serif" font-size="14" font-weight="bold" lengthAdjust="spacing" textLength="65" x="95.9039" y="184.5332">frontgate</text><!--MD5=[d0a6a00ec972470f35b55d5f076227b8]
entity front_service--><rect fill="#FFE4C4" filter="url(#f1m6srauba09df)" height="40.6094" style="stroke:#8B4513;stroke-width:1.0;" width="75" x="98.9039" y="206"/><polygon fill="#FFE4C4" points="156.9039,211,156.9039,225,168.9039,225,168.9039,217,162.9039,211,156.9039,211" style="stroke:#8B4513;stroke-width:1.0;"/><line style="stroke:#8B4513;stroke-width:1.0;" x1="162.9039" x2="162.9039" y1="211" y2="217"/><line style="stroke:#8B4513;stroke-width:1.0;" x1="168.9039" x2="162.9039" y1="217" y2="217"/><text fill="#8B4513" font-family="sans-serif" font-size="14" lengthAdjust="spacing" textLength="45" x="108.9039" y="233.5332">service</text><!--MD5=[cd4473eb31c3b4fde06f93f1f693d219]
entity front_deployment--><rect fill="#FFE4C4" filter="url(#f1m6srauba09df)" height="40.6094" style="stroke:#8B4513;stroke-width:1.0;" width="103" x="84.9039" y="307"/><polygon fill="#FFE4C4" points="170.9039,312,170.9039,326,182.9039,326,182.9039,318,176.9039,312,170.9039,312" style="stroke:#8B4513;stroke-width:1.0;"/><line style="stroke:#8B4513;stroke-width:1.0;" x1="176.9039" x2="176.9039" y1="312" y2="318"/><line style="stroke:#8B4513;stroke-width:1.0;" x1="182.9039" x2="176.9039" y1="318" y2="318"/><text fill="#8B4513" font-family="sans-serif" font-size="14" lengthAdjust="spacing" textLength="73" x="94.9039" y="334.5332">deployment</text><!--MD5=[7cc3cd7b61f9e6501f78e5a57108bd0b]
entity front_pod--><rect fill="#FFE4C4" filter="url(#f1m6srauba09df)" height="33.6094" style="stroke:#8B4513;stroke-width:1.5;" width="40" x="118.4039" y="412"/><rect fill="#FFE4C4" height="33.6094" style="stroke:#8B4513;stroke-width:1.5;" width="40" x="114.4039" y="408"/><text fill="#8B4513" font-family="sans-serif" font-size="14" lengthAdjust="spacing" textLength="24" x="122.4039" y="430.5332">pod</text><!--MD5=[8fc3522a43f8c7199df5e09e5bb0188e]
entity user--><ellipse cx="60.4039" cy="14" fill="#FEFECE" filter="url(#f1m6srauba09df)" rx="8" ry="8" style="stroke:#A80036;stroke-width:2.0;"/><path d="M60.4039,22 L60.4039,49 M47.4039,30 L73.4039,30 M60.4039,49 L47.4039,64 M60.4039,49 L73.4039,64 " fill="none" filter="url(#f1m6srauba09df)" style="stroke:#A80036;stroke-width:2.0;"/><text fill="#000000" font-family="sans-serif" font-size="14" lengthAdjust="spacing" textLength="28" x="46.4039" y="85.5332">user</text><!--MD5=[4c1bcac971530c53be28cd372d5485ab]
link user to frontgate--><path d="M60.4039,89.23 C60.4039,102.1775 60.4039,117.005 60.4039,132.0031 C60.4039,139.5022 60.4039,147.0439 60.4039,154.4146 C60.4039,154.8753 60.4039,155.3353 60.4039,155.7946 C60.4039,156.0242 60.4039,156.2537 60.4039,156.4829 " fill="none" id="user-to-frontgate" style="stroke:#A80036;stroke-width:1.0;"/><polygon fill="#A80036" points="60.4039,156.4829,64.4039,147.4829,60.4039,151.4829,56.4039,147.4829,60.4039,156.4829" style="stroke:#A80036;stroke-width:1.0;"/><!--MD5=[57083751749e8a1d05a0f95f87e9eea4]
reverse link front_service to front_deployment--><path d="M136.4039,252.14 C136.4039,269.08 136.4039,291.26 136.4039,306.98 " fill="none" id="front_service-backto-front_deployment" style="stroke:#A80036;stroke-width:1.0;"/><polygon fill="#A80036" points="136.4039,247.06,132.4039,256.06,136.4039,252.06,140.4039,256.06,136.4039,247.06" style="stroke:#A80036;stroke-width:1.0;"/><!--MD5=[81015e4e86b3e1bcd248e8ff5c6110ec]
reverse link front_deployment to front_pod--><path d="M136.4039,353.34 C136.4039,370.37 136.4039,392.58 136.4039,407.94 " fill="none" id="front_deployment-backto-front_pod" style="stroke:#A80036;stroke-width:1.0;"/><polygon fill="#A80036" points="136.4039,348.23,132.4039,357.23,136.4039,353.23,140.4039,357.23,136.4039,348.23" style="stroke:#A80036;stroke-width:1.0;"/><!--MD5=[9c3acd708d0c994c987d9e8925ede5ec]
@startuml
<style>
artifact {
  BackgroundColor bisque
  LineColor saddlebrown
  FontColor saddlebrown
}
collections {
  BackgroundColor bisque
  LineColor saddlebrown
  FontColor saddlebrown
}
</style>

actor user
cloud environment {
  node "frontgate" as frontgate {
    artifact service as front_service
    artifact deployment as front_deployment
    collections pod as front_pod
  }
}

user - -> frontgate
front_service <- - front_deployment
front_deployment <- - front_pod
@enduml

PlantUML version 1.2021.11(Sat Oct 02 15:26:11 CEST 2021)
(GPL source distribution)
Java Runtime: OpenJDK Runtime Environment
JVM: OpenJDK 64-Bit Server VM
Default Encoding: Cp1252
Language: en
Country: US
--></g></svg>