<?xml version="1.0" encoding="UTF-8" standalone="no"?><svg xmlns="http://www.w3.org/2000/svg" xmlns:xlink="http://www.w3.org/1999/xlink" contentScriptType="application/ecmascript" contentStyleType="text/css" height="588px" preserveAspectRatio="none" style="width:516px;height:588px;background:#FFFFFF;" version="1.1" viewBox="0 0 516 588" width="516px" zoomAndPan="magnify"><defs><filter height="300%" id="ftkywbu0pljjd" width="300%" x="-1" y="-1"><feGaussianBlur result="blurOut" stdDeviation="2.0"/><feColorMatrix in="blurOut" result="blurOut2" type="matrix" values="0 0 0 0 0 0 0 0 0 0 0 0 0 0 0 0 0 0 .4 0"/><feOffset dx="4.0" dy="4.0" in="blurOut2" result="blurOut3"/><feBlend in="SourceGraphic" in2="blurOut3" mode="normal"/></filter></defs><g><!--MD5=[8fc3522a43f8c7199df5e09e5bb0188e]
entity user--><ellipse cx="320.1289" cy="14" fill="#FFB6C1" filter="url(#ftkywbu0pljjd)" rx="8" ry="8" style="stroke:#8B0000;stroke-width:1.5;"/><path d="M320.1289,22 L320.1289,49 M307.1289,30 L333.1289,30 M320.1289,49 L307.1289,64 M320.1289,49 L333.1289,64 " fill="none" filter="url(#ftkywbu0pljjd)" style="stroke:#8B0000;stroke-width:1.5;"/><text fill="#8B0000" font-family="sans-serif" font-size="14" lengthAdjust="spacing" textLength="28" x="306.1289" y="84.0332">user</text><!--MD5=[6acc1f646e0f2fcb2ccae54730d1672f]
entity frontgate--><path d="M174.4462,175.1502 C176.5936,168.6407 180.2223,167.1957 185.5666,172.0111 C189.0655,166.1776 193.0325,166.7777 196.6859,171.8537 C198.7233,165.8938 203.1454,163.4852 208.2184,168.729 C212.614,164.4781 217.0983,165.1984 220.0063,170.5543 C224.8507,165.7589 231.3533,166.5567 233.4885,173.6314 C236.7871,167.532 242.4679,167.509 245.7481,173.6497 C255.8375,174.0075 259.1541,182.445 254.0344,190.3494 C258.7432,200.1257 256.2334,205.8006 244.9413,206.6522 C242.1338,212.89 238.1858,213.2966 233.3935,208.7842 C231.6496,215.8649 228.0122,216.7661 222.0017,213.4667 C220.193,221.2402 214.0306,221.8411 209.1368,216.4909 C203.6847,220.6964 199.8309,219.1101 197.6385,212.8943 C192.5568,217.8912 187.8796,215.9734 185.6825,209.8053 C180.5183,215.8163 175.0136,212.6265 173.1186,206.4384 C164.6729,203.9328 163.1536,198.6078 167.3136,191.2761 C162.0115,184.1018 164.4698,175.5668 174.4462,175.1502 " fill="#E6E6FA" filter="url(#ftkywbu0pljjd)" style="stroke:#9400D3;stroke-width:1.5;"/><text fill="#9400D3" font-family="sans-serif" font-size="14" lengthAdjust="spacing" textLength="57" x="179.6289" y="195.0332">frontgate</text><!--MD5=[44f162fa27c90984df2daaddf8f7ba9d]
entity backgate--><path d="M137.3192,300.2049 C140.0239,294.7912 143.6549,293.6865 147.7543,298.8258 C150.3358,292.5196 156.604,290.5797 160.9996,296.9269 C164.1248,291.1441 168.4404,290.109 173.3195,294.8795 C176.9978,291.258 181.0905,292.3184 183.1638,296.8237 C187.6598,290.1601 193.7196,290.5769 197.3028,297.756 C202.4912,294.5226 206.1227,295.6274 208.3004,301.423 C216.2179,303.3105 216.7251,310.0599 212.0088,315.3189 C218.0977,321.9194 216.8874,327.68 209.2409,332.0015 C206.6982,338.745 200.6169,340.7701 195.2265,335.2579 C194.144,340.9426 189.5794,343.7707 184.7063,339.1142 C182.3328,346.6619 178.0711,346.0738 172.8037,342.1051 C166.3361,347.4924 161.6159,344.9648 159.6913,337.478 C155.0316,341.7349 151.0909,340.1659 148.6173,334.9283 C144.0676,340.7162 138.4821,338.4633 136.269,332.4776 C127.6571,328.8181 126.4111,322.2505 133.9182,316.2551 C127.6056,309.4039 128.3621,303.8205 137.3192,300.2049 " fill="#E6E6FA" filter="url(#ftkywbu0pljjd)" style="stroke:#9400D3;stroke-width:1.5;"/><text fill="#9400D3" font-family="sans-serif" font-size="14" lengthAdjust="spacing" textLength="58" x="142.1289" y="321.0332">backgate</text><!--MD5=[8025ad86b7bfd9c9a9c22787cab830ca]
entity microservice--><rect fill="#E6E6FA" filter="url(#ftkywbu0pljjd)" height="33.6094" style="stroke:#9400D3;stroke-width:1.5;" width="102" x="229.1289" y="421.5"/><rect fill="#E6E6FA" height="33.6094" style="stroke:#9400D3;stroke-width:1.5;" width="102" x="225.1289" y="417.5"/><text fill="#9400D3" font-family="sans-serif" font-size="14" lengthAdjust="spacing" textLength="86" x="233.1289" y="440.0332">microservices</text><!--MD5=[d7b5257a7f82d78d4bfc4a1c03f5802b]
entity core_frontgate--><path d="M150.1821,32.1992 C154.1655,25.8918 158.4331,24.7124 163.6808,30.8251 C166.5782,22.748 171.1872,21.92 176.9413,28.1836 C180.2742,20.9429 185.0867,22.1523 189.5771,26.9707 C192.5758,19.8232 198.3779,19.931 203.0796,25.1043 C207.4801,20.3628 213.2636,20.7341 215.6878,27.3067 C220.059,21.3497 223.6359,22.4493 227.6019,27.7361 C232.9023,22.7054 238.1842,23.4458 241.6495,29.9676 C246.4152,24.0401 250.4525,23.8048 254.704,30.4993 C262.8093,34.3508 265.5498,40.659 258.4268,47.7895 C263.6786,54.3716 261.8913,61.1918 253.0832,62.753 C248.9924,69.2275 244.9969,68.652 240.1024,63.6632 C237.7586,71.2371 232.1243,71.1898 227.4453,65.9742 C223.9482,71.1312 218.7103,71.5995 215.0025,66.2232 C211.9953,72.4984 207.1278,74.0321 202.1226,68.381 C196.9701,75.143 192.1108,74.0133 188.6377,66.7646 C184.0863,73.2966 179.0571,72.1029 175.4785,65.7696 C171.1851,71.6047 166.0241,70.8152 163.1977,64.3097 C158.4555,69.1741 153.3273,68.8739 150.8064,61.9706 C142.6537,58.6537 141.4461,53.8224 147.7226,47.4426 C140.5567,41.164 142.7402,36.1209 150.1821,32.1992 " fill="#F0F8FF" filter="url(#ftkywbu0pljjd)" style="stroke:#00008B;stroke-width:1.5;"/><text fill="#00008B" font-family="sans-serif" font-size="14" lengthAdjust="spacing" textLength="89" x="156.6289" y="51.5332">core frontgate</text><!--MD5=[1a0f94d5cf7f8400c3216e2b087b76e5]
entity core_backgate--><path d="M18.0551,174.7538 C20.8573,169.1071 26.3797,167.0061 30.8268,172.9398 C35.0783,167.3462 39.7352,166.884 43.9717,172.9567 C47.2614,165.5603 51.8102,165.1091 57.3532,170.6209 C61.0322,163.1018 65.7306,163.3513 71.0705,168.874 C75.4293,164.0181 81.8053,165.0326 84.2937,171.1317 C88.4215,166.0529 94.0783,165.5607 96.915,172.4888 C100.93,167.0168 105.5836,165.7698 109.5978,172.4896 C114.8647,167.5025 120.0115,167.208 123.1323,174.7989 C131.3332,178.1886 131.9773,185.1094 124.3542,189.789 C131.8438,195.0875 130.9836,201.7535 123.3211,206.0918 C119.4825,213.3375 114.5354,214.6631 109.1443,207.6336 C106.5032,214.1076 101.5399,215.148 97.1148,209.3878 C95.3802,217.5028 88.5483,218.2804 83.3956,212.8497 C80.7559,219.4158 75.5904,219.5723 71.1397,214.8087 C65.1467,221.6614 59.0359,219.2752 56.5519,211.3458 C52.0289,217.1089 47.8468,215.851 44.4075,210.1934 C39.9415,216.5196 33.3462,216.1848 30.5962,208.5017 C26.593,213.6406 21.053,212.6544 19.3194,206.2789 C10.7724,204.5684 6,198.8053 12.6802,190.6332 C6.2685,183.0161 8.2328,176.8759 18.0551,174.7538 " fill="#F0F8FF" filter="url(#ftkywbu0pljjd)" style="stroke:#00008B;stroke-width:1.5;"/><text fill="#00008B" font-family="sans-serif" font-size="14" lengthAdjust="spacing" textLength="90" x="24.1289" y="195.0332">core backgate</text><!--MD5=[65604176e8d8f18ec29561fe29311dc3]
entity core_microservice--><rect fill="#E6E6FA" filter="url(#ftkywbu0pljjd)" height="33.6094" style="stroke:#9400D3;stroke-width:1.5;" width="134" x="370.1289" y="421.5"/><rect fill="#E6E6FA" height="33.6094" style="stroke:#9400D3;stroke-width:1.5;" width="134" x="366.1289" y="417.5"/><text fill="#9400D3" font-family="sans-serif" font-size="14" lengthAdjust="spacing" textLength="118" x="374.1289" y="440.0332">core microservices</text><!--MD5=[12b6f4cc1aa0afeec12ab2767c8165cb]
entity kubegres--><rect fill="#FFE4C4" filter="url(#ftkywbu0pljjd)" height="40.6094" style="stroke:#8B4513;stroke-width:1.5;" width="89" x="233.6289" y="533.5"/><polygon fill="#FFE4C4" points="305.6289,538.5,305.6289,552.5,317.6289,552.5,317.6289,544.5,311.6289,538.5,305.6289,538.5" style="stroke:#8B4513;stroke-width:1.5;"/><line style="stroke:#8B4513;stroke-width:1.5;" x1="311.6289" x2="311.6289" y1="538.5" y2="544.5"/><line style="stroke:#8B4513;stroke-width:1.5;" x1="317.6289" x2="311.6289" y1="544.5" y2="544.5"/><text fill="#8B4513" font-family="sans-serif" font-size="14" lengthAdjust="spacing" textLength="59" x="243.6289" y="561.0332">kubegres</text><!--MD5=[c43275934993365e73f815055c43169b]
entity grpcui--><rect fill="#FFE4C4" filter="url(#ftkywbu0pljjd)" height="33.6094" style="stroke:#8B4513;stroke-width:1.5;" width="69" x="297.6289" y="174.5"/><rect fill="#FFE4C4" height="33.6094" style="stroke:#8B4513;stroke-width:1.5;" width="69" x="293.6289" y="170.5"/><text fill="#8B4513" font-family="sans-serif" font-size="14" lengthAdjust="spacing" textLength="53" x="301.6289" y="193.0332">gRPC UI</text><!--MD5=[4c1bcac971530c53be28cd372d5485ab]
link user to frontgate--><path d="M305.4889,65.5 C286.1589,89.92 251.9789,133.1 229.6889,161.26 " fill="none" id="user-to-frontgate" style="stroke:#8B4513;stroke-width:1.0;"/><polygon fill="#8B4513" points="226.4989,165.3,235.2223,160.728,229.6032,161.3804,228.9509,155.7612,226.4989,165.3" style="stroke:#8B4513;stroke-width:1.0;"/><text fill="#8B4513" font-family="sans-serif" font-size="13" lengthAdjust="spacing" textLength="29" x="265.1289" y="131.9951">https</text><!--MD5=[e88d0c3170881a4bbc09b9d1a8d6efc3]
link frontgate to backgate--><path d="M183.0789,213.55 C175.4889,222.13 168.1089,232.48 164.1289,243.5 C159.2289,257.08 160.2389,273 162.7989,286.33 " fill="none" id="frontgate-to-backgate" style="stroke:#9400D3;stroke-width:1.0;"/><polygon fill="#9400D3" points="163.8889,291.49,165.9278,281.8545,162.8481,286.5995,158.1031,283.5198,163.8889,291.49" style="stroke:#9400D3;stroke-width:1.0;"/><text fill="#9400D3" font-family="sans-serif" font-size="13" lengthAdjust="spacing" textLength="52" x="165.1289" y="257.9951">grpc-web</text><!--MD5=[9845fedf5f1eec3a3df83dbd3902cd48]
link backgate to core_microservice--><path d="M215.3189,336.42 C263.9489,358.34 341.6789,393.38 390.4889,415.38 " fill="none" id="backgate-to-core_microservice" style="stroke:#9400D3;stroke-width:1.0;"/><polygon fill="#9400D3" points="395.1289,417.47,388.5717,410.1213,390.5717,415.4128,385.2803,417.4129,395.1289,417.47" style="stroke:#9400D3;stroke-width:1.0;"/><text fill="#9400D3" font-family="sans-serif" font-size="13" lengthAdjust="spacing" textLength="44" x="327.1289" y="383.9951">gGRPC</text><!--MD5=[60b711a3e7ee0456b56300d528ce2d11]
link backgate to microservice--><path d="M165.4789,339.76 C163.2289,354.59 163.0089,373.58 172.1289,387.5 C183.1989,404.4 201.7989,415.43 220.3589,422.58 " fill="none" id="backgate-to-microservice" style="stroke:#9400D3;stroke-width:1.0;"/><polygon fill="#9400D3" points="225.0689,424.32,218.0096,417.4523,220.378,422.5895,215.2408,424.9579,225.0689,424.32" style="stroke:#9400D3;stroke-width:1.0;"/><text fill="#9400D3" font-family="sans-serif" font-size="13" lengthAdjust="spacing" textLength="44" x="173.1289" y="383.9951">gGRPC</text><!--MD5=[0a99729eb451b362cc728da948db0909]
reverse link core_frontgate to frontgate--><path d="M203.2589,90.09 C204.4889,114.91 205.9789,145.11 206.9889,165.46 " fill="none" id="core_frontgate-backto-frontgate" style="stroke:#00008B;stroke-width:1.0;"/><polygon fill="none" points="196.2689,90.37,202.2689,70.05,210.2489,89.68,196.2689,90.37" style="stroke:#00008B;stroke-width:1.0;"/><!--MD5=[2a9f2c9e7969d849168d27ba0d07efab]
reverse link core_backgate to backgate--><path d="M100.8989,229.12 C117.6189,249.45 137.5789,273.71 151.9389,291.17 " fill="none" id="core_backgate-backto-backgate" style="stroke:#00008B;stroke-width:1.0;"/><polygon fill="none" points="95.3789,233.43,88.0789,213.53,106.1889,224.53,95.3789,233.43" style="stroke:#00008B;stroke-width:1.0;"/><!--MD5=[20f303ef0e3f1ceb25d79fc3796db8d0]
link backgate to kubegres--><path d="M155.4189,339.58 C138.0989,368.17 115.1489,417.7 135.1289,455.5 C154.7289,492.59 195.4989,518.23 228.4989,533.87 " fill="none" id="backgate-to-kubegres" style="stroke:#8B4513;stroke-width:1.0;"/><polygon fill="#8B4513" points="233.3089,536.11,226.8372,528.686,228.7758,534.0003,223.4616,535.9389,233.3089,536.11" style="stroke:#8B4513;stroke-width:1.0;"/><text fill="#8B4513" font-family="sans-serif" font-size="13" lengthAdjust="spacing" textLength="71" x="136.1289" y="441.9951">PostgreSQL</text><!--MD5=[5c22ef53bc0baa1f3a55c8884d78d8c7]
link microservice to kubegres--><path d="M278.1289,455.55 C278.1289,475.05 278.1289,506.25 278.1289,528.09 " fill="none" id="microservice-to-kubegres" style="stroke:#8B4513;stroke-width:1.0;"/><polygon fill="#8B4513" points="278.1289,533.14,282.1289,524.14,278.1289,528.14,274.1289,524.14,278.1289,533.14" style="stroke:#8B4513;stroke-width:1.0;"/><text fill="#8B4513" font-family="sans-serif" font-size="13" lengthAdjust="spacing" textLength="71" x="279.1289" y="499.9951">PostgreSQL</text><!--MD5=[732a68cc731abfc65a16c75390cb43d6]
link core_microservice to kubegres--><path d="M416.1889,455.52 C401.2389,469.35 379.5789,488.53 359.1289,503.5 C346.1089,513.03 331.1889,522.52 317.7389,530.59 " fill="none" id="core_microservice-to-kubegres" style="stroke:#8B4513;stroke-width:1.0;"/><polygon fill="#8B4513" points="313.2389,533.27,323.019,532.1078,317.5365,530.7143,318.9299,525.2318,313.2389,533.27" style="stroke:#8B4513;stroke-width:1.0;"/><text fill="#8B4513" font-family="sans-serif" font-size="13" lengthAdjust="spacing" textLength="71" x="381.1289" y="499.9951">PostgreSQL</text><!--MD5=[ebeecff86a530073d0cf729f15426187]
link user to grpcui--><path d="M322.9989,87.55 C324.7689,112.69 326.9889,144.11 328.4789,165.15 " fill="none" id="user-to-grpcui" style="stroke:#8B4513;stroke-width:1.0;"/><polygon fill="#8B4513" points="328.8389,170.27,332.1857,161.0072,328.4817,165.2828,324.2061,161.5788,328.8389,170.27" style="stroke:#8B4513;stroke-width:1.0;"/><text fill="#8B4513" font-family="sans-serif" font-size="13" lengthAdjust="spacing" textLength="29" x="327.1289" y="131.9951">https</text><!--MD5=[67989291cc5c060c8e433172bfa75508]
reverse link grpcui to backgate--><path d="M300.5589,211.75 C287.4489,221.31 271.9089,232.82 258.1289,243.5 C237.9489,259.15 215.6389,277.37 198.6589,291.44 " fill="none" id="grpcui-backto-backgate" style="stroke:#9400D3;stroke-width:1.0;"/><polygon fill="#9400D3" points="304.9089,208.59,295.2785,210.6526,300.8665,211.5326,299.9866,217.1206,304.9089,208.59" style="stroke:#9400D3;stroke-width:1.0;"/><text fill="#9400D3" font-family="sans-serif" font-size="13" lengthAdjust="spacing" textLength="44" x="259.1289" y="257.9951">gGRPC</text><!--MD5=[1ddcdaa2625a5f0bd6153855ed446ed6]
reverse link grpcui to microservice--><path d="M330.8189,214.03 C331.2089,251.74 328.9889,327.56 308.1289,387.5 C304.4489,398.08 298.0989,408.76 292.1789,417.34 " fill="none" id="grpcui-backto-microservice" style="stroke:#9400D3;stroke-width:1.0;"/><polygon fill="#9400D3" points="330.7489,208.75,326.8779,217.8062,330.8204,213.7495,334.8771,217.6919,330.7489,208.75" style="stroke:#9400D3;stroke-width:1.0;"/><text fill="#9400D3" font-family="sans-serif" font-size="13" lengthAdjust="spacing" textLength="44" x="328.1289" y="320.9951">gGRPC</text><!--MD5=[46c6429cc1f86b265b139babc867f476]
reverse link grpcui to core_microservice--><path d="M342.5089,213.24 C353.3089,233.49 369.0989,264.07 381.1289,291.5 C400.5289,335.76 419.4889,389.42 428.9389,417.06 " fill="none" id="grpcui-backto-core_microservice" style="stroke:#9400D3;stroke-width:1.0;"/><polygon fill="#9400D3" points="340.1389,208.83,340.8498,218.6532,342.4941,213.2406,347.9067,214.8849,340.1389,208.83" style="stroke:#9400D3;stroke-width:1.0;"/><text fill="#9400D3" font-family="sans-serif" font-size="13" lengthAdjust="spacing" textLength="44" x="401.1289" y="320.9951">gGRPC</text><!--MD5=[f6575f612b2b96d383bbd6737e824a9d]
@startuml
actor user as user #lightpink;line:darkred;text:darkred

' GATE
cloud       "frontgate"     as frontgate    #lavender;line:darkviolet;text:darkviolet
cloud       "backgate"      as backgate     #lavender;line:darkviolet;text:darkviolet
collections "microservices" as microservice #lavender;line:darkviolet;text:darkviolet

' CORE
cloud       "core frontgate"     as core_frontgate    #aliceblue;line:darkblue;text:darkblue
cloud       "core backgate"      as core_backgate     #aliceblue;line:darkblue;text:darkblue
collections "core microservices" as core_microservice #lavender;line:darkviolet;text:darkviolet

' 3RD PARTY
artifact    "kubegres" as kubegres #bisque;line:saddlebrown;text:saddlebrown
collections "gRPC UI"  as grpcui   #bisque;line:saddlebrown;text:saddlebrown

' gate connections
user      - -> frontgate         #saddlebrown;text:saddlebrown : https
frontgate - -> backgate          #darkviolet;text:darkviolet   : "grpc-web"
backgate  - -> core_microservice #darkviolet;text:darkviolet   : gGRPC
backgate  - -> microservice      #darkviolet;text:darkviolet   : gGRPC

' gate inheritance
core_frontgate ^- - frontgate #darkblue
core_backgate  ^- - backgate  #darkblue

' kubegres connection
backgate          - -> kubegres #saddlebrown;text:saddlebrown : PostgreSQL
microservice      - -> kubegres #saddlebrown;text:saddlebrown : PostgreSQL
core_microservice - -> kubegres #saddlebrown;text:saddlebrown : PostgreSQL

' grpcui connection
user   - -> grpcui            #saddlebrown;text:saddlebrown : https
grpcui <- - backgate          #darkviolet;text:darkviolet   : gGRPC
grpcui <- - microservice      #darkviolet;text:darkviolet   : gGRPC
grpcui <- - core_microservice #darkviolet;text:darkviolet   : gGRPC
@enduml

@startuml
actor user as user #lightpink;line:darkred;text:darkred

cloud       "frontgate"     as frontgate    #lavender;line:darkviolet;text:darkviolet
cloud       "backgate"      as backgate     #lavender;line:darkviolet;text:darkviolet
collections "microservices" as microservice #lavender;line:darkviolet;text:darkviolet

cloud       "core frontgate"     as core_frontgate    #aliceblue;line:darkblue;text:darkblue
cloud       "core backgate"      as core_backgate     #aliceblue;line:darkblue;text:darkblue
collections "core microservices" as core_microservice #lavender;line:darkviolet;text:darkviolet

artifact    "kubegres" as kubegres #bisque;line:saddlebrown;text:saddlebrown
collections "gRPC UI"  as grpcui   #bisque;line:saddlebrown;text:saddlebrown

user      - -> frontgate         #saddlebrown;text:saddlebrown : https
frontgate - -> backgate          #darkviolet;text:darkviolet   : "grpc-web"
backgate  - -> core_microservice #darkviolet;text:darkviolet   : gGRPC
backgate  - -> microservice      #darkviolet;text:darkviolet   : gGRPC

core_frontgate ^- - frontgate #darkblue
core_backgate  ^- - backgate  #darkblue

backgate          - -> kubegres #saddlebrown;text:saddlebrown : PostgreSQL
microservice      - -> kubegres #saddlebrown;text:saddlebrown : PostgreSQL
core_microservice - -> kubegres #saddlebrown;text:saddlebrown : PostgreSQL

user   - -> grpcui            #saddlebrown;text:saddlebrown : https
grpcui <- - backgate          #darkviolet;text:darkviolet   : gGRPC
grpcui <- - microservice      #darkviolet;text:darkviolet   : gGRPC
grpcui <- - core_microservice #darkviolet;text:darkviolet   : gGRPC
@enduml

PlantUML version 1.2021.15(Tue Nov 30 17:45:34 CET 2021)
(GPL source distribution)
Java Runtime: OpenJDK Runtime Environment
JVM: OpenJDK 64-Bit Server VM
Default Encoding: Cp1252
Language: en
Country: US
--></g></svg>