<?xml version="1.0" encoding="UTF-8" standalone="no"?><svg xmlns="http://www.w3.org/2000/svg" xmlns:xlink="http://www.w3.org/1999/xlink" contentScriptType="application/ecmascript" contentStyleType="text/css" height="449px" preserveAspectRatio="none" style="width:569px;height:449px;background:#FFFFFF;" version="1.1" viewBox="0 0 569 449" width="569px" zoomAndPan="magnify"><defs><filter height="300%" id="f1li3diug55mm3" width="300%" x="-1" y="-1"><feGaussianBlur result="blurOut" stdDeviation="2.0"/><feColorMatrix in="blurOut" result="blurOut2" type="matrix" values="0 0 0 0 0 0 0 0 0 0 0 0 0 0 0 0 0 0 .4 0"/><feOffset dx="4.0" dy="4.0" in="blurOut2" result="blurOut3"/><feBlend in="SourceGraphic" in2="blurOut3" mode="normal"/></filter></defs><g><!--MD5=[f12f832c3ac0603ce526ef171d08d9c6]
cluster base--><polygon fill="#FFFFFF" filter="url(#f1li3diug55mm3)" points="16,6,56,6,63,29.6094,297,29.6094,297,246,16,246,16,6" style="stroke:#A80036;stroke-width:1.0;"/><line style="stroke:#A80036;stroke-width:1.0;" x1="16" x2="63" y1="29.6094" y2="29.6094"/><text fill="#000000" font-family="sans-serif" font-size="14" font-weight="bold" lengthAdjust="spacing" textLength="34" x="20" y="22.5332">base</text><!--MD5=[7579d5565d2521d5936cec86ed3dadee]
cluster service--><polygon fill="#FFFFFF" filter="url(#f1li3diug55mm3)" points="337,115,396,115,403,138.6094,552,138.6094,552,285,337,285,337,115" style="stroke:#A80036;stroke-width:1.0;"/><line style="stroke:#A80036;stroke-width:1.0;" x1="337" x2="403" y1="138.6094" y2="138.6094"/><text fill="#000000" font-family="sans-serif" font-size="14" font-weight="bold" lengthAdjust="spacing" textLength="53" x="341" y="131.5332">service</text><!--MD5=[e18d4bc80fd28bdf82576c0057a5a41c]
cluster environment--><polygon fill="#FFFFFF" filter="url(#f1li3diug55mm3)" points="337,325,433,325,440,348.6094,510,348.6094,510,442,337,442,337,325" style="stroke:#A80036;stroke-width:1.0;"/><line style="stroke:#A80036;stroke-width:1.0;" x1="337" x2="440" y1="348.6094" y2="348.6094"/><text fill="#000000" font-family="sans-serif" font-size="14" font-weight="bold" lengthAdjust="spacing" textLength="90" x="341" y="341.5332">environment</text><!--MD5=[50ccbf393146abc57ca063c6c2cb7003]
entity base_deployment--><rect fill="#FFE4C4" filter="url(#f1li3diug55mm3)" height="40.6094" style="stroke:#8B4513;stroke-width:1.0;" width="103" x="40.5" y="50"/><polygon fill="#FFE4C4" points="126.5,55,126.5,69,138.5,69,138.5,61,132.5,55,126.5,55" style="stroke:#8B4513;stroke-width:1.0;"/><line style="stroke:#8B4513;stroke-width:1.0;" x1="132.5" x2="132.5" y1="55" y2="61"/><line style="stroke:#8B4513;stroke-width:1.0;" x1="138.5" x2="132.5" y1="61" y2="61"/><text fill="#8B4513" font-family="sans-serif" font-size="14" lengthAdjust="spacing" textLength="73" x="50.5" y="77.5332">deployment</text><!--MD5=[ec6d0ae9564e179d40b42f6853a93f12]
entity base_service--><rect fill="#FFE4C4" filter="url(#f1li3diug55mm3)" height="40.6094" style="stroke:#8B4513;stroke-width:1.0;" width="75" x="178.5" y="50"/><polygon fill="#FFE4C4" points="236.5,55,236.5,69,248.5,69,248.5,61,242.5,55,236.5,55" style="stroke:#8B4513;stroke-width:1.0;"/><line style="stroke:#8B4513;stroke-width:1.0;" x1="242.5" x2="242.5" y1="55" y2="61"/><line style="stroke:#8B4513;stroke-width:1.0;" x1="248.5" x2="242.5" y1="61" y2="61"/><text fill="#8B4513" font-family="sans-serif" font-size="14" lengthAdjust="spacing" textLength="45" x="188.5" y="77.5332">service</text><!--MD5=[830a5953ccefdea84f3a9046b0a965ff]
entity base_kustomization--><rect fill="#E6E6FA" filter="url(#f1li3diug55mm3)" height="23.6094" style="stroke:#9400D3;stroke-width:1.0;" width="105" x="40.5" y="198"/><text fill="#9400D3" font-family="sans-serif" font-size="14" lengthAdjust="spacing" textLength="85" x="50.5" y="215.5332">kustomization</text><!--MD5=[2b210637f9e2cbe19143ead2d5bfcece]
entity service_kustomization--><rect fill="#E6E6FA" filter="url(#f1li3diug55mm3)" height="102.0469" style="stroke:#9400D3;stroke-width:1.0;" width="148" x="380" y="159"/><text fill="#9400D3" font-family="sans-serif" font-size="14" lengthAdjust="spacing" textLength="85" x="390" y="176.5332">kustomization</text><line style="stroke:#9400D3;stroke-width:1.0;" x1="381" x2="527" y1="179.6094" y2="179.6094"/><line style="stroke:#9400D3;stroke-width:1.0;" x1="381" x2="527" y1="181.6094" y2="181.6094"/><text fill="#9400D3" font-family="sans-serif" font-size="14" lengthAdjust="spacing" textLength="70" x="390" y="198.1426">namePrefix</text><text fill="#9400D3" font-family="sans-serif" font-size="14" lengthAdjust="spacing" textLength="95" x="390" y="215.752">commonLabels</text><text fill="#9400D3" font-family="sans-serif" font-size="14" lengthAdjust="spacing" textLength="128" x="390" y="233.3613">commonAnnotations</text><text fill="#9400D3" font-family="sans-serif" font-size="14" lengthAdjust="spacing" textLength="45" x="390" y="250.9707">images</text><!--MD5=[f9caea639f5bb7133c0f4ebc52fc0dc0]
entity environment_kustomization--><rect fill="#E6E6FA" filter="url(#f1li3diug55mm3)" height="49.2188" style="stroke:#9400D3;stroke-width:1.0;" width="105" x="380.5" y="369"/><text fill="#9400D3" font-family="sans-serif" font-size="14" lengthAdjust="spacing" textLength="85" x="390.5" y="386.5332">kustomization</text><line style="stroke:#9400D3;stroke-width:1.0;" x1="381.5" x2="484.5" y1="389.6094" y2="389.6094"/><line style="stroke:#9400D3;stroke-width:1.0;" x1="381.5" x2="484.5" y1="391.6094" y2="391.6094"/><text fill="#9400D3" font-family="sans-serif" font-size="14" lengthAdjust="spacing" textLength="73" x="390.5" y="408.1426">namespace</text><!--MD5=[760dde90296147dd0247660e35bb2400]
reverse link base to service--><path d="M297.0643,91.3014 C297.1414,91.4907 297.2189,91.681 297.2968,91.8724 C297.6085,92.6377 297.9269,93.4193 298.2514,94.2161 C303.4441,106.9653 310.2281,123.6219 317.0113,140.2763 C323.7944,156.9306 330.5766,173.5828 335.7655,186.3233 C336.0898,187.1196 336.4079,187.9006 336.7193,188.6653 C336.7972,188.8565 336.8747,189.0467 336.9517,189.2358 " fill="none" id="base-backto-service" style="stroke:#A80036;stroke-width:1.0;"/><polygon fill="#A80036" points="297.0643,91.3014,296.7546,101.1454,298.9503,95.9321,304.1636,98.1277,297.0643,91.3014" style="stroke:#A80036;stroke-width:1.0;"/><!--MD5=[dd925c118d6c80c63055d1b5e693106f]
reverse link service to environment--><path d="M345,285.3756 C345,290.7914 345,296.2877 345,301.7838 C345,307.2798 345,312.7758 345,318.1909 C345,319.5446 345,320.8934 345,322.2358 C345,322.907 345,323.5766 345,324.2445 C345,324.4115 345,324.5784 345,324.7451 " fill="none" id="service-backto-environment" style="stroke:#A80036;stroke-width:1.0;"/><polygon fill="#A80036" points="345,285.3756,341,294.3756,345,290.3756,349,294.3756,345,285.3756" style="stroke:#A80036;stroke-width:1.0;"/><!--MD5=[843aa127082e9dc8da62809684afad0e]
link base_deployment to base_service--><!--MD5=[c836d3e6b50e470bbcbffe95b22c935e]
link base_deployment to base_kustomization--><!--MD5=[e79e177f6ff9932c155e17fa8def3a10]
@startuml
<style>
artifact {
  BackgroundColor bisque
  LineColor saddlebrown
  FontColor saddlebrown
}
card {
  BackgroundColor lavender
  LineColor darkviolet
  FontColor darkviolet
}
</style>

folder base {
  artifact deployment as base_deployment
  artifact service as base_service
  card kustomization as base_kustomization
}

folder service {
  card service_kustomization [
    kustomization
    ====
    namePrefix
    commonLabels
    commonAnnotations
    images
  ]
}

folder environment {
  card environment_kustomization [
    kustomization
    ====
    namespace
  ]
}

base <- - service
service <- - environment
@enduml

PlantUML version 1.2021.11(Sat Oct 02 15:26:11 CEST 2021)
(GPL source distribution)
Java Runtime: OpenJDK Runtime Environment
JVM: OpenJDK 64-Bit Server VM
Default Encoding: Cp1252
Language: en
Country: US
--></g></svg>